REM MD5 f5dea8031ee966014cbae68df0010cd2
FILE "UEFA Champions League - Season 1999-2000 (Germany).bin" BINARY
  TRACK 01 MODE2/2352
    INDEX 01 00:00:00
  TRACK 02 AUDIO
    INDEX 00 48:54:46
    INDEX 01 48:56:46
  TRACK 03 AUDIO
    INDEX 00 55:10:06
    INDEX 01 55:12:06
REM LEADOUT 61:25:41
